<svg xmlns="http://www.w3.org/2000/svg" width="121.611" height="114.003" viewBox="0 0 121.611 114.003">
  <g id="_2948025" data-name="2948025" transform="translate(0 -16.017)">
    <path id="Path_16422" data-name="Path 16422" d="M131.684,264.175H50.926A10.938,10.938,0,0,1,40,253.249V195.763a3.8,3.8,0,0,1,7.6,0v57.485a3.329,3.329,0,0,0,3.325,3.325h80.758a3.329,3.329,0,0,0,3.325-3.325V195.763a3.8,3.8,0,0,1,7.6,0v57.485A10.938,10.938,0,0,1,131.684,264.175Z" transform="translate(-30.499 -134.155)" fill="#fff"/>
    <path id="Path_16423" data-name="Path 16423" d="M117.811,74.909a3.787,3.787,0,0,1-2.687-1.113L67.86,26.531a9.987,9.987,0,0,0-14.108,0L6.488,73.8a3.8,3.8,0,0,1-5.374-5.374L48.378,21.157a17.6,17.6,0,0,1,24.857,0L120.5,68.421a3.8,3.8,0,0,1-2.687,6.488Z" fill="#fff"/>
    <path id="Path_16424" data-name="Path 16424" d="M210.2,337.388H179.8a3.8,3.8,0,0,1-3.8-3.8V299.859a11.89,11.89,0,0,1,11.876-11.876h14.251A11.89,11.89,0,0,1,214,299.859v33.728A3.8,3.8,0,0,1,210.2,337.388Zm-26.6-7.6h22.8V299.859a4.28,4.28,0,0,0-4.275-4.275H187.876a4.28,4.28,0,0,0-4.275,4.275Z" transform="translate(-134.196 -207.368)" fill="#fff"/>
  </g>
</svg>
